<svg width="24" height="24" viewBox="0 0 24 24" fill="none" xmlns="http://www.w3.org/2000/svg">
<rect width="24" height="24" rx="12" fill="url(#paint0_linear_229_2)"/>
<mask id="mask0_229_2" style="mask-type:alpha" maskUnits="userSpaceOnUse" x="2" y="2" width="20" height="20">
<rect x="2.3999" y="2.40002" width="19.2" height="19.2" fill="#D9D9D9"/>
</mask>
<g mask="url(#mask0_229_2)">
<path d="M12.0002 20C11.6535 20 11.3402 19.9167 11.0602 19.75C10.7802 19.5833 10.5602 19.36 10.4002 19.08C9.9602 19.08 9.58353 18.9233 9.2702 18.61C8.95686 18.2967 8.8002 17.92 8.8002 17.48V14.64C8.01353 14.12 7.38353 13.4333 6.9102 12.58C6.43686 11.7267 6.2002 10.8 6.2002 9.8C6.2002 8.18667 6.76353 6.81667 7.8902 5.69C9.01686 4.56333 10.3869 4 12.0002 4C13.6135 4 14.9835 4.56333 16.1102 5.69C17.2369 6.81667 17.8002 8.18667 17.8002 9.8C17.8002 10.8267 17.5635 11.76 17.0902 12.6C16.6169 13.44 15.9869 14.12 15.2002 14.64V17.48C15.2002 17.92 15.0435 18.2967 14.7302 18.61C14.4169 18.9233 14.0402 19.08 13.6002 19.08C13.4402 19.36 13.2202 19.5833 12.9402 19.75C12.6602 19.9167 12.3469 20 12.0002 20ZM10.4002 17.48H13.6002V16.76H10.4002V17.48ZM10.4002 15.96H13.6002V15.2H10.4002V15.96ZM10.2402 13.6H11.4002V11.44L9.6402 9.68L10.4802 8.84L12.0002 10.36L13.5202 8.84L14.3602 9.68L12.6002 11.44V13.6H13.7602C14.4802 13.2533 15.0669 12.7433 15.5202 12.07C15.9735 11.3967 16.2002 10.64 16.2002 9.8C16.2002 8.62667 15.7935 7.63333 14.9802 6.82C14.1669 6.00667 13.1735 5.6 12.0002 5.6C10.8269 5.6 9.83353 6.00667 9.0202 6.82C8.20686 7.63333 7.8002 8.62667 7.8002 9.8C7.8002 10.64 8.02686 11.3967 8.4802 12.07C8.93353 12.7433 9.5202 13.2533 10.2402 13.6Z" fill="#343434"/>
</g>
<defs>
<linearGradient id="paint0_linear_229_2" x1="0" y1="12" x2="24" y2="12" gradientUnits="userSpaceOnUse">
<stop stop-color="#059669"/>
<stop offset="0.31533" stop-color="#11B884"/>
<stop offset="0.685144" stop-color="#0FC48C"/>
<stop offset="1" stop-color="#0EBB86"/>
</linearGradient>
</defs>
</svg>
