<svg width="32" height="32" viewBox="0 0 32 32" fill="none" xmlns="http://www.w3.org/2000/svg">
<rect width="32" height="32" rx="16" fill="#38BDF8"/>
<mask id="mask0_24_25" style="mask-type:alpha" maskUnits="userSpaceOnUse" x="3" y="3" width="26" height="26">
<rect x="3.94519" y="3.94521" width="24.4188" height="24.4188" fill="#D9D9D9"/>
</mask>
<g mask="url(#mask0_24_25)">
<path d="M16.1546 26.3291C15.7137 26.3291 15.3152 26.2231 14.9591 26.0112C14.603 25.7992 14.3232 25.5152 14.1197 25.1591C13.5601 25.1591 13.081 24.9598 12.6825 24.5613C12.284 24.1628 12.0848 23.6838 12.0848 23.1242V19.5122C11.0843 18.8509 10.2831 17.9776 9.68106 16.8923C9.07907 15.807 8.77808 14.6284 8.77808 13.3566C8.77808 11.3048 9.49453 9.56238 10.9274 8.12947C12.3604 6.69656 14.1027 5.9801 16.1546 5.9801C18.2065 5.9801 19.9488 6.69656 21.3818 8.12947C22.8147 9.56238 23.5311 11.3048 23.5311 13.3566C23.5311 14.6624 23.2301 15.8494 22.6281 16.9177C22.0261 17.986 21.2249 18.8509 20.2244 19.5122V23.1242C20.2244 23.6838 20.0252 24.1628 19.6267 24.5613C19.2282 24.9598 18.7491 25.1591 18.1895 25.1591C17.986 25.5152 17.7062 25.7992 17.3501 26.0112C16.994 26.2231 16.5955 26.3291 16.1546 26.3291ZM14.1197 23.1242H18.1895V22.2085H14.1197V23.1242ZM14.1197 21.191H18.1895V20.2244H14.1197V21.191ZM16.9177 18.1895V15.4424L19.1561 13.204L18.0878 12.1357L16.1546 14.0688L14.2214 12.1357L13.1531 13.204L15.3915 15.4424V18.1895H16.9177Z" fill="#353535"/>
</g>
</svg>
