<svg width="35" height="35" viewBox="0 0 30 30" fill="none" xmlns="http://www.w3.org/2000/svg">
<rect width="30" height="30" rx="15" fill="url(#paint0_linear_201_76)"/>
<mask id="mask0_201_76" style="mask-type:alpha" maskUnits="userSpaceOnUse" x="3" y="3" width="24" height="24">
<rect x="3" y="3" width="24" height="24" fill="#D9D9D9"/>
</mask>
<g mask="url(#mask0_201_76)">
<path d="M15 25C14.5667 25 14.175 24.8958 13.825 24.6875C13.475 24.4792 13.2 24.2 13 23.85C12.45 23.85 11.9792 23.6542 11.5875 23.2625C11.1958 22.8708 11 22.4 11 21.85V18.3C10.0167 17.65 9.22917 16.7917 8.6375 15.725C8.04583 14.6583 7.75 13.5 7.75 12.25C7.75 10.2333 8.45417 8.52083 9.8625 7.1125C11.2708 5.70417 12.9833 5 15 5C17.0167 5 18.7292 5.70417 20.1375 7.1125C21.5458 8.52083 22.25 10.2333 22.25 12.25C22.25 13.5333 21.9542 14.7 21.3625 15.75C20.7708 16.8 19.9833 17.65 19 18.3V21.85C19 22.4 18.8042 22.8708 18.4125 23.2625C18.0208 23.6542 17.55 23.85 17 23.85C16.8 24.2 16.525 24.4792 16.175 24.6875C15.825 24.8958 15.4333 25 15 25ZM13 21.85H17V20.95H13V21.85ZM13 19.95H17V19H13V19.95ZM12.8 17H14.25V14.3L12.05 12.1L13.1 11.05L15 12.95L16.9 11.05L17.95 12.1L15.75 14.3V17H17.2C18.1 16.5667 18.8333 15.9292 19.4 15.0875C19.9667 14.2458 20.25 13.3 20.25 12.25C20.25 10.7833 19.7417 9.54167 18.725 8.525C17.7083 7.50833 16.4667 7 15 7C13.5333 7 12.2917 7.50833 11.275 8.525C10.2583 9.54167 9.75 10.7833 9.75 12.25C9.75 13.3 10.0333 14.2458 10.6 15.0875C11.1667 15.9292 11.9 16.5667 12.8 17Z" fill="#343434"/>
</g>
<defs>
<linearGradient id="paint0_linear_201_76" x1="0" y1="15" x2="30" y2="15" gradientUnits="userSpaceOnUse">
<stop stop-color="#059669"/>
<stop offset="0.31533" stop-color="#11B884"/>
<stop offset="0.685144" stop-color="#0FC48C"/>
<stop offset="1" stop-color="#0EBB86"/>
</linearGradient>
</defs>
</svg>
