<svg width="24" height="24" viewBox="0 0 24 24" fill="none" xmlns="http://www.w3.org/2000/svg">
<mask id="mask0_209_19" style="mask-type:alpha" maskUnits="userSpaceOnUse" x="0" y="0" width="24" height="24">
<rect width="24" height="24" fill="#D9D9D9"/>
</mask>
<g mask="url(#mask0_209_19)">
<path d="M12 22C11.5667 22 11.175 21.896 10.825 21.688C10.475 21.4793 10.2 21.2 10 20.85C9.45 20.85 8.97933 20.6543 8.588 20.263C8.196 19.871 8 19.4 8 18.85V15.3C7.01667 14.65 6.22933 13.7917 5.638 12.725C5.046 11.6583 4.75 10.5 4.75 9.25C4.75 7.23333 5.454 5.52067 6.862 4.112C8.27067 2.704 9.98333 2 12 2C14.0167 2 15.729 2.704 17.137 4.112C18.5457 5.52067 19.25 7.23333 19.25 9.25C19.25 10.5333 18.9543 11.7 18.363 12.75C17.771 13.8 16.9833 14.65 16 15.3V18.85C16 19.4 15.8043 19.871 15.413 20.263C15.021 20.6543 14.55 20.85 14 20.85C13.8 21.2 13.525 21.4793 13.175 21.688C12.825 21.896 12.4333 22 12 22ZM10 18.85H14V17.95H10V18.85ZM10 16.95H14V16H10V16.95ZM12.75 14V11.3L14.95 9.1L13.9 8.05L12 9.95L10.1 8.05L9.05 9.1L11.25 11.3V14H12.75Z" fill="url(#paint0_linear_209_19)"/>
</g>
<defs>
<linearGradient id="paint0_linear_209_19" x1="4.75" y1="12" x2="19.25" y2="12" gradientUnits="userSpaceOnUse">
<stop stop-color="#059669"/>
<stop offset="0.31533" stop-color="#11B884"/>
<stop offset="0.685144" stop-color="#0FC48C"/>
<stop offset="1" stop-color="#0EBB86"/>
</linearGradient>
</defs>
</svg>
